<?xml version="1.0" encoding="UTF-8" standalone="no"?>
<!-- Created with Inkscape (http://www.inkscape.org/) -->

<svg
   xmlns:dc="http://purl.org/dc/elements/1.1/"
   xmlns:cc="http://creativecommons.org/ns#"
   xmlns:rdf="http://www.w3.org/1999/02/22-rdf-syntax-ns#"
   xmlns:svg="http://www.w3.org/2000/svg"
   xmlns="http://www.w3.org/2000/svg"
   xmlns:sodipodi="http://sodipodi.sourceforge.net/DTD/sodipodi-0.dtd"
   xmlns:inkscape="http://www.inkscape.org/namespaces/inkscape"
   width="2094.7251mm"
   height="968.07941mm"
   viewBox="0 0 2094.7251 968.07941"
   version="1.1"
   id="svg8"
   inkscape:version="0.92.4 (unknown)"
   sodipodi:docname="laser_cut.svg">
  <defs
     id="defs2" />
  <sodipodi:namedview
     id="base"
     pagecolor="#ffffff"
     bordercolor="#666666"
     borderopacity="1.0"
     inkscape:pageopacity="0.0"
     inkscape:pageshadow="2"
     inkscape:zoom="0.12374369"
     inkscape:cx="3717.5497"
     inkscape:cy="1728.889"
     inkscape:document-units="mm"
     inkscape:current-layer="svgGroup-3"
     showgrid="false"
     fit-margin-top="0"
     fit-margin-left="0"
     fit-margin-right="0"
     fit-margin-bottom="0"
     inkscape:window-width="1877"
     inkscape:window-height="1016"
     inkscape:window-x="43"
     inkscape:window-y="118"
     inkscape:window-maximized="1" />
  <metadata
     id="metadata5">
    <rdf:RDF>
      <cc:Work
         rdf:about="">
        <dc:format>image/svg+xml</dc:format>
        <dc:type
           rdf:resource="http://purl.org/dc/dcmitype/StillImage" />
        <dc:title></dc:title>
      </cc:Work>
    </rdf:RDF>
  </metadata>
  <g
     inkscape:label="Layer 1"
     inkscape:groupmode="layer"
     id="layer1"
     transform="translate(879.38034,301.20475)">
    <g
       style="font-size:12px;fill:none;fill-rule:evenodd;stroke:#000000;stroke-width:0.25000001mm;stroke-linecap:round"
       font-size="9pt"
       id="svgGroup"
       transform="translate(-879.33034,-301.15475)">
      <path
         style="vector-effect:non-scaling-stroke;stroke:#ff0000;stroke-width:0.1"
         id="front_outsideCutPath"
         d="m 0,517 v 48.25 h 3 v 46.875 h 2.75 v -1.25 H 8 v 1.25 h 2.25 v 2.75 H 8 v 1.25 H 5.75 v -1.25 H 3 V 661.75 H 0 v 96.5 h 3 v 46.875 h 2.75 v -1.25 H 8 v 1.25 h 2.25 v 2.75 H 8 v 1.25 H 5.75 v -1.25 H 3 V 854.75 H 0 V 903 h 66.25 v -3 h 64.875 v -2.75 h -1.25 V 895 h 1.25 v -2.25 h 2.75 V 895 h 1.25 v 2.25 h -1.25 V 900 h 64.875 v 3 h 132.5 v -3 h 64.875 v -2.75 h -1.25 V 895 h 1.25 v -2.25 h 2.75 V 895 h 1.25 v 2.25 h -1.25 V 900 h 64.875 v 3 H 530 v -48.25 h -3 v -46.875 h -2.75 v 1.25 H 522 v -1.25 h -2.25 v -2.75 H 522 v -1.25 h 2.25 v 1.25 H 527 V 758.25 h 3 v -96.5 h -3 v -46.875 h -2.75 v 1.25 H 522 v -1.25 h -2.25 v -2.75 H 522 v -1.25 h 2.25 v 1.25 H 527 V 565.25 h 3 V 517 h -66.25 v 3 h -64.875 v 2.75 h 1.25 V 525 h -1.25 v 2.25 h -2.75 V 525 h -1.25 v -2.25 h 1.25 V 520 H 331.25 v -3 h -132.5 v 3 h -64.875 v 2.75 h 1.25 V 525 h -1.25 v 2.25 h -2.75 V 525 h -1.25 v -2.25 h 1.25 V 520 H 66.25 v -3 z"
         inkscape:connector-curvature="0" />
      <path
         style="vector-effect:non-scaling-stroke;fill:#777777;stroke:#777777"
         id="front_labelLayer"
         d="m 321.26,739.157 h -6.257 v -26.726 q 0,-3.22 -0.935,-5.399 a 7.444,7.444 0 0 0 -1.365,-2.141 q -1.861,-2.014 -5.427,-2.397 a 16.589,16.589 0 0 0 -1.772,-0.09 18.938,18.938 0 0 0 -3.544,0.309 q -1.974,0.376 -3.493,1.212 a 8.822,8.822 0 0 0 -2.463,1.984 10.23,10.23 0 0 0 -1.778,3.109 q -1.07,2.852 -1.215,7.105 a 40.087,40.087 0 0 0 -0.022,1.359 v 21.675 h -6.258 v -41.315 h 5.089 l 1.018,5.655 h 0.302 a 12.67,12.67 0 0 1 4.963,-4.516 15.236,15.236 0 0 1 0.427,-0.215 16.944,16.944 0 0 1 6.03,-1.608 20.489,20.489 0 0 1 1.698,-0.069 q 7.463,0 11.233,3.599 3.769,3.6 3.769,11.516 z M 201.05,697.842 v 4.863 h -10.517 v 36.452 h -6.258 v -36.452 h -7.388 v -2.827 l 7.388,-2.262 v -2.299 a 25.361,25.361 0 0 1 0.593,-5.747 q 1.831,-7.839 9.324,-9.197 a 19.02,19.02 0 0 1 3.39,-0.285 20.15,20.15 0 0 1 2.851,0.218 q 1.388,0.199 2.931,0.579 a 40.506,40.506 0 0 1 1.908,0.522 l -1.621,5.014 q -2.571,-0.83 -4.609,-1.071 a 13.457,13.457 0 0 0 -1.573,-0.098 8.439,8.439 0 0 0 -2.034,0.23 5.419,5.419 0 0 0 -3.206,2.126 7.24,7.24 0 0 0 -0.957,1.93 q -0.739,2.194 -0.739,5.628 v 2.676 z m 152.063,36.15 v 4.788 a 6.155,6.155 0 0 1 -0.73,0.289 q -0.906,0.301 -2.267,0.521 a 27.121,27.121 0 0 1 -1.768,0.23 q -0.834,0.079 -1.582,0.089 a 16.037,16.037 0 0 1 -0.212,10e-4 16.343,16.343 0 0 1 -4.817,-0.648 q -5.294,-1.633 -6.679,-7.385 a 19.669,19.669 0 0 1 -0.491,-4.595 v -24.577 h -5.918 v -3.015 l 5.918,-2.601 2.638,-8.821 h 3.619 v 9.574 h 11.987 v 4.863 h -11.987 v 24.314 a 12.6,12.6 0 0 0 0.182,2.212 q 0.386,2.159 1.59,3.517 a 5.813,5.813 0 0 0 3.573,1.903 8.364,8.364 0 0 0 1.289,0.095 20.55,20.55 0 0 0 3.011,-0.215 18.938,18.938 0 0 0 0.194,-0.03 q 1.545,-0.245 2.45,-0.509 z m -120.738,-36.451 -0.867,5.805 a 27.578,27.578 0 0 0 -1.983,-0.366 q -1.377,-0.199 -2.541,-0.199 a 10.842,10.842 0 0 0 -8.01,3.459 14.833,14.833 0 0 0 -0.565,0.612 14.289,14.289 0 0 0 -3.448,8.023 18.993,18.993 0 0 0 -0.115,2.117 v 22.165 h -6.257 v -41.315 h 5.164 l 0.716,7.653 h 0.302 a 21.132,21.132 0 0 1 2.363,-3.376 16.142,16.142 0 0 1 3.178,-2.844 12.474,12.474 0 0 1 7.125,-2.186 28.727,28.727 0 0 1 2.571,0.109 20.967,20.967 0 0 1 2.367,0.343 z m 38.298,36.696 a 17.456,17.456 0 0 0 2.079,-2.855 q 3.01,-5.15 3.01,-12.92 0,-9.839 -5.108,-15.606 a 16.381,16.381 0 0 0 -7.604,-4.905 21.027,21.027 0 0 0 -6.173,-0.862 24.303,24.303 0 0 0 -4.366,0.374 16.551,16.551 0 0 0 -9.657,5.261 17.287,17.287 0 0 0 -2.123,2.944 q -2.928,5.102 -2.928,12.794 a 31.303,31.303 0 0 0 0.393,5.07 23.148,23.148 0 0 0 1.944,6.314 20.567,20.567 0 0 0 0.455,0.892 16.94,16.94 0 0 0 6.179,6.571 17.424,17.424 0 0 0 4,1.779 20.094,20.094 0 0 0 5.839,0.822 24.298,24.298 0 0 0 4.243,-0.354 16.682,16.682 0 0 0 9.817,-5.319 z m -26.387,-15.775 a 31.687,31.687 0 0 0 0.302,4.526 q 0.332,2.298 1.032,4.16 a 13.128,13.128 0 0 0 1.833,3.376 q 3.166,4.147 9.311,4.147 a 14.534,14.534 0 0 0 3.834,-0.477 10.115,10.115 0 0 0 5.495,-3.651 q 3.185,-4.128 3.185,-12.081 0,-5.054 -1.31,-8.549 a 12.884,12.884 0 0 0 -1.875,-3.419 10.294,10.294 0 0 0 -6.399,-3.819 15.782,15.782 0 0 0 -3.006,-0.271 14.892,14.892 0 0 0 -3.707,0.434 9.966,9.966 0 0 0 -5.566,3.599 12.938,12.938 0 0 0 -2.011,3.886 q -1.118,3.363 -1.118,8.139 z"
         inkscape:connector-curvature="0" />
      <path
         style="vector-effect:non-scaling-stroke;stroke:#ff0000;stroke-width:0.1"
         id="left_outsideCutPath"
         d="m 536,517 v 48.25 h -3 v 46.875 h 2.75 v 1.375 1.375 H 533 v 46.875 h 3 v 96.5 h -3 v 46.875 h 2.75 v 1.375 1.375 H 533 v 46.875 h 3 V 903 h 53.25 v -3 h 54.875 v -2.75 h -1.25 V 895 h 1.25 v -2.25 h 2.75 V 895 h 1.25 v 2.25 h -1.25 V 900 h 54.875 v 3 h 112.5 v -3 h 54.875 v -2.75 h -1.25 V 895 h 1.25 v -2.25 h 2.75 V 895 h 1.25 v 2.25 h -1.25 V 900 h 54.875 v 3 H 980 v -48.25 h 3 v -46.875 h -2.75 V 806.5 805.125 H 983 V 758.25 h -3 v -96.5 h 3 v -46.875 h -2.75 V 613.5 612.125 H 983 V 565.25 h -3 V 517 h -53.25 v 3 h -54.875 v 2.75 h 1.25 V 525 h -1.25 v 2.25 h -2.75 V 525 h -1.25 v -2.25 h 1.25 V 520 H 814.25 v -3 h -112.5 v 3 h -54.875 v 2.75 h 1.25 V 525 h -1.25 v 2.25 h -2.75 V 525 h -1.25 v -2.25 h 1.25 V 520 H 589.25 v -3 z"
         inkscape:connector-curvature="0" />
      <path
         style="vector-effect:non-scaling-stroke;fill:#777777;stroke:#777777"
         id="left_labelLayer"
         d="m 785.461,697.842 v 4.863 h -10.517 v 36.452 h -6.257 v -36.452 h -7.389 v -2.827 l 7.389,-2.262 v -2.299 a 25.361,25.361 0 0 1 0.592,-5.747 q 1.831,-7.839 9.324,-9.197 a 19.02,19.02 0 0 1 3.39,-0.285 20.15,20.15 0 0 1 2.851,0.218 q 1.388,0.199 2.931,0.579 a 40.506,40.506 0 0 1 1.908,0.522 l -1.621,5.014 q -2.57,-0.83 -4.608,-1.071 a 13.457,13.457 0 0 0 -1.574,-0.098 8.439,8.439 0 0 0 -2.034,0.23 5.419,5.419 0 0 0 -3.206,2.126 7.24,7.24 0 0 0 -0.957,1.93 q -0.739,2.194 -0.739,5.628 v 2.676 z m -29.289,17.83 v 3.958 h -28.46 a 25.115,25.115 0 0 0 0.44,4.205 q 0.452,2.29 1.356,4.099 a 11.749,11.749 0 0 0 1.879,2.741 11.37,11.37 0 0 0 5.97,3.364 17.228,17.228 0 0 0 3.85,0.406 33.049,33.049 0 0 0 12.377,-2.452 37.87,37.87 0 0 0 0.816,-0.338 v 5.579 q -3.317,1.432 -6.276,2.054 -2.3,0.484 -5.341,0.592 a 50.981,50.981 0 0 1 -1.802,0.03 24.316,24.316 0 0 1 -6.085,-0.72 17.218,17.218 0 0 1 -8.372,-4.858 18.416,18.416 0 0 1 -4.405,-8.09 q -0.765,-2.868 -0.873,-6.274 a 35.743,35.743 0 0 1 -0.018,-1.129 32.858,32.858 0 0 1 0.608,-6.516 q 0.802,-3.961 2.66,-7.039 a 18.53,18.53 0 0 1 1.651,-2.315 16.035,16.035 0 0 1 11.687,-5.829 22.12,22.12 0 0 1 1.526,-0.051 19.064,19.064 0 0 1 5.368,0.718 14.506,14.506 0 0 1 6.92,4.389 17.496,17.496 0 0 1 3.965,7.995 25.468,25.468 0 0 1 0.559,5.481 z m 55.827,18.32 v 4.788 a 6.155,6.155 0 0 1 -0.73,0.289 q -0.907,0.301 -2.267,0.521 a 27.121,27.121 0 0 1 -1.769,0.23 q -0.833,0.079 -1.581,0.089 a 16.037,16.037 0 0 1 -0.212,10e-4 16.343,16.343 0 0 1 -4.817,-0.648 q -5.294,-1.633 -6.679,-7.385 a 19.669,19.669 0 0 1 -0.492,-4.595 v -24.577 h -5.918 v -3.015 l 5.918,-2.601 2.639,-8.821 h 3.619 v 9.574 h 11.987 v 4.863 H 799.71 v 24.314 a 12.6,12.6 0 0 0 0.182,2.212 q 0.385,2.159 1.59,3.517 a 5.813,5.813 0 0 0 3.573,1.903 8.364,8.364 0 0 0 1.289,0.095 20.55,20.55 0 0 0 3.011,-0.215 18.938,18.938 0 0 0 0.193,-0.03 q 1.546,-0.245 2.451,-0.509 z m -101.74,-53.489 v 58.654 h -6.258 v -58.654 z m 17.604,34.038 h 21.599 a 21.323,21.323 0 0 0 -0.258,-3.428 q -0.567,-3.473 -2.381,-5.637 a 8.573,8.573 0 0 0 -5.162,-2.939 12.86,12.86 0 0 0 -2.377,-0.209 q -4.976,0 -7.935,3.242 -2.677,2.933 -3.364,7.903 a 23.64,23.64 0 0 0 -0.122,1.068 z"
         inkscape:connector-curvature="0" />
      <path
         style="vector-effect:non-scaling-stroke;stroke:#ff0000;stroke-width:0.1"
         id="top_outsideCutPath"
         d="m 989,456 v 53.25 h -3 v 54.875 h 2.75 v 1.375 1.375 H 986 v 54.875 h 3 v 112.5 h -3 v 54.875 h 2.75 v 1.375 1.375 H 986 v 54.875 h 3 V 900 h 63.25 v 3 h 64.875 v -2.75 h 1.375 1.375 V 903 h 64.875 v -3 h 132.5 v 3 h 64.875 v -2.75 h 1.375 1.375 V 903 h 64.875 v -3 H 1513 v -53.25 h 3 v -54.875 h -2.75 V 790.5 789.125 H 1516 V 734.25 h -3 v -112.5 h 3 v -54.875 h -2.75 V 565.5 564.125 H 1516 V 509.25 h -3 V 456 h -63.25 v -3 h -64.875 v 2.75 h -1.375 -1.375 V 453 h -64.875 v 3 h -132.5 v -3 h -64.875 v 2.75 h -1.375 -1.375 V 453 h -64.875 v 3 z"
         inkscape:connector-curvature="0" />
      <path
         style="vector-effect:non-scaling-stroke;fill:#777777;stroke:#777777"
         id="top_labelLayer"
         d="m 1283.343,690.656 h -0.527 a 69.037,69.037 0 0 1 0.453,5.102 57.85,57.85 0 0 1 0.074,2.896 v 19.82 h -7.295 v -69.786 h 5.933 l 1.011,6.592 h 0.351 a 19.636,19.636 0 0 1 2.84,-3.225 15.184,15.184 0 0 1 3.708,-2.488 18.269,18.269 0 0 1 5.237,-1.53 23.645,23.645 0 0 1 3.333,-0.227 22.361,22.361 0 0 1 6.317,0.844 16.528,16.528 0 0 1 8.47,5.703 21.904,21.904 0 0 1 3.738,7.298 q 0.964,3.144 1.296,6.93 a 47.503,47.503 0 0 1 0.174,4.142 42.772,42.772 0 0 1 -0.567,7.196 q -0.656,3.835 -2.07,6.912 a 20.504,20.504 0 0 1 -2.659,4.327 q -5.295,6.569 -14.699,6.569 a 22.127,22.127 0 0 1 -5.561,-0.678 19.253,19.253 0 0 1 -3.031,-1.057 16.157,16.157 0 0 1 -6.526,-5.34 z m -71.279,0.176 v 5.581 q -1.072,0.516 -3.058,0.871 a 27.282,27.282 0 0 1 -0.436,0.074 31.618,31.618 0 0 1 -2.061,0.268 q -1.111,0.105 -2.091,0.105 -11.146,0 -13.402,-9.364 a 22.93,22.93 0 0 1 -0.573,-5.357 v -28.653 h -6.899 v -3.515 l 6.899,-3.032 3.076,-10.284 h 4.219 v 11.162 h 13.975 v 5.669 h -13.975 v 28.345 a 14.69,14.69 0 0 0 0.212,2.58 q 0.253,1.416 0.808,2.536 a 7.076,7.076 0 0 0 1.045,1.564 6.777,6.777 0 0 0 4.166,2.217 9.75,9.75 0 0 0 1.503,0.112 23.958,23.958 0 0 0 3.51,-0.251 22.084,22.084 0 0 0 0.226,-0.035 q 1.719,-0.272 2.758,-0.565 a 10.95,10.95 0 0 0 0.098,-0.028 z m 50.527,-10.775 a 37.681,37.681 0 0 0 0.669,-7.33 42.814,42.814 0 0 0 -0.015,-1.159 q -0.288,-10.654 -5.939,-17.035 -5.955,-6.723 -16.062,-6.723 -10.459,0 -16.348,6.569 -5.889,6.57 -5.889,18.348 0,7.602 2.725,13.271 a 23.977,23.977 0 0 0 0.531,1.04 19.749,19.749 0 0 0 7.203,7.661 20.312,20.312 0 0 0 4.663,2.073 23.426,23.426 0 0 0 6.807,0.959 28.327,28.327 0 0 0 4.947,-0.413 19.448,19.448 0 0 0 11.445,-6.2 q 3.939,-4.392 5.263,-11.061 z m -34.471,2.796 a 15.304,15.304 0 0 0 2.137,3.936 11.956,11.956 0 0 0 7.787,4.586 18.118,18.118 0 0 0 3.068,0.248 16.944,16.944 0 0 0 4.47,-0.556 11.792,11.792 0 0 0 6.406,-4.256 15.66,15.66 0 0 0 2.439,-4.75 q 1.275,-3.901 1.275,-9.334 a 36.399,36.399 0 0 0 -0.345,-5.187 q -0.381,-2.64 -1.183,-4.779 a 15.02,15.02 0 0 0 -2.186,-3.987 12,12 0 0 0 -7.46,-4.451 18.399,18.399 0 0 0 -3.504,-0.317 17.361,17.361 0 0 0 -4.322,0.506 11.619,11.619 0 0 0 -6.489,4.196 15.083,15.083 0 0 0 -2.344,4.531 q -1.303,3.92 -1.303,9.488 0,5.988 1.554,10.126 z m 55.223,-11.752 v 1.626 q 0,10.151 3.384,14.523 a 10.583,10.583 0 0 0 5.369,3.623 q 1.794,0.563 3.983,0.703 a 23.456,23.456 0 0 0 1.503,0.047 12.292,12.292 0 0 0 4.779,-0.897 q 2.756,-1.151 4.723,-3.776 a 14.537,14.537 0 0 0 0.275,-0.381 q 2.792,-3.987 3.381,-10.355 a 38.864,38.864 0 0 0 0.157,-3.575 36.812,36.812 0 0 0 -0.345,-5.221 q -0.38,-2.646 -1.178,-4.796 a 15.465,15.465 0 0 0 -2.015,-3.804 11.348,11.348 0 0 0 -8.3,-4.727 15.695,15.695 0 0 0 -1.653,-0.085 21.02,21.02 0 0 0 -3.927,0.341 q -2.187,0.417 -3.866,1.342 a 9.64,9.64 0 0 0 -2.886,2.404 12.498,12.498 0 0 0 -1.954,3.562 q -1.373,3.731 -1.43,9.446 z"
         inkscape:connector-curvature="0" />
      <path
         style="vector-effect:non-scaling-stroke;stroke:#ff0000;stroke-width:0.1"
         id="back_outsideCutPath"
         d="m 0,128 v 48.25 h 3 v 46.875 h 2.75 v -1.25 H 8 v 1.25 h 2.25 v 2.75 H 8 v 1.25 H 5.75 v -1.25 H 3 V 272.75 H 0 v 96.5 h 3 v 46.875 h 2.75 v -1.25 H 8 v 1.25 h 2.25 v 2.75 H 8 v 1.25 H 5.75 v -1.25 H 3 V 465.75 H 0 V 514 h 66.25 v -3 h 64.875 v -2.75 h -1.25 V 506 h 1.25 v -2.25 h 2.75 V 506 h 1.25 v 2.25 h -1.25 V 511 h 64.875 v 3 h 132.5 v -3 h 64.875 v -2.75 h -1.25 V 506 h 1.25 v -2.25 h 2.75 V 506 h 1.25 v 2.25 h -1.25 V 511 h 64.875 v 3 H 530 v -48.25 h -3 v -46.875 h -2.75 v 1.25 H 522 v -1.25 h -2.25 v -2.75 H 522 v -1.25 h 2.25 v 1.25 H 527 V 369.25 h 3 v -96.5 h -3 v -46.875 h -2.75 v 1.25 H 522 v -1.25 h -2.25 v -2.75 H 522 v -1.25 h 2.25 v 1.25 H 527 V 176.25 h 3 V 128 h -66.25 v 3 h -64.875 v 2.75 h 1.25 V 136 h -1.25 v 2.25 h -2.75 V 136 h -1.25 v -2.25 h 1.25 V 131 H 331.25 v -3 h -132.5 v 3 h -64.875 v 2.75 h 1.25 V 136 h -1.25 v 2.25 h -2.75 V 136 h -1.25 v -2.25 h 1.25 V 131 H 66.25 v -3 z"
         inkscape:connector-curvature="0" />
      <path
         style="vector-effect:non-scaling-stroke;fill:#777777;stroke:#777777"
         id="back_labelLayer"
         d="m 317.849,328.803 h 0.301 a 37.043,37.043 0 0 1 0.917,-1.24 q 1.054,-1.37 2.56,-3.121 a 134.453,134.453 0 0 1 1.461,-1.671 l 13.345,-14.135 h 7.426 l -16.737,17.603 17.905,23.711 h -7.577 l -14.588,-19.527 -4.712,4.071 v 15.456 h -6.182 v -58.654 h 6.182 v 31.098 a 41.699,41.699 0 0 1 -0.018,1.178 q -0.056,1.931 -0.272,5.074 a 258.185,258.185 0 0 1 -0.011,0.157 z M 191.23,344.635 h -0.452 l -1.319,5.315 h -4.486 v -58.654 h 6.257 v 14.248 a 130.462,130.462 0 0 1 -0.07,4.408 q -0.071,2.085 -0.212,3.941 a 78.103,78.103 0 0 1 -0.019,0.246 h 0.301 a 14.227,14.227 0 0 1 10.385,-6.031 21.371,21.371 0 0 1 2.582,-0.151 19.125,19.125 0 0 1 5.383,0.718 14.317,14.317 0 0 1 7.264,4.842 q 3.607,4.452 4.326,11.866 a 40.165,40.165 0 0 1 0.179,3.872 36.689,36.689 0 0 1 -0.486,6.173 q -0.563,3.29 -1.776,5.929 a 17.588,17.588 0 0 1 -2.28,3.711 14.813,14.813 0 0 1 -10.529,5.536 21.223,21.223 0 0 1 -2.081,0.099 18.98,18.98 0 0 1 -4.769,-0.581 16.514,16.514 0 0 1 -2.6,-0.907 13.859,13.859 0 0 1 -5.598,-4.58 z m 71.094,5.315 h -4.637 l -1.244,-5.881 h -0.301 a 25.94,25.94 0 0 1 -2.099,2.35 q -1.13,1.109 -2.257,1.883 a 11.529,11.529 0 0 1 -1.808,1.026 14.43,14.43 0 0 1 -2.98,0.94 q -1.446,0.299 -3.121,0.393 a 28.16,28.16 0 0 1 -1.57,0.042 q -4.915,0 -8.129,-2.026 a 10.775,10.775 0 0 1 -1.502,-1.14 q -3.487,-3.166 -3.487,-9.009 a 10.827,10.827 0 0 1 6.159,-10.219 q 4.586,-2.44 12.586,-2.848 a 61.124,61.124 0 0 1 1.272,-0.051 l 7.011,-0.226 v -2.564 q 0,-2.972 -0.782,-4.993 a 6.983,6.983 0 0 0 -1.31,-2.187 6.352,6.352 0 0 0 -2.602,-1.698 q -1.041,-0.378 -2.332,-0.526 a 15.461,15.461 0 0 0 -1.757,-0.095 20.373,20.373 0 0 0 -4.689,0.585 q -3.277,0.776 -6.997,2.582 l -1.922,-4.788 a 28.851,28.851 0 0 1 5.568,-2.289 32.84,32.84 0 0 1 1.123,-0.312 28.979,28.979 0 0 1 7.294,-0.942 q 4.621,0 7.745,1.283 a 10.65,10.65 0 0 1 3.205,1.996 9.909,9.909 0 0 1 2.557,3.945 q 0.597,1.619 0.84,3.633 a 24.622,24.622 0 0 1 0.166,2.939 z m 40.447,-39.92 -1.923,5.315 a 27.837,27.837 0 0 0 -3.02,-1.004 33.247,33.247 0 0 0 -1.503,-0.372 25.848,25.848 0 0 0 -1.967,-0.364 q -0.959,-0.137 -1.812,-0.171 a 13.871,13.871 0 0 0 -0.556,-0.011 13.88,13.88 0 0 0 -5.637,1.059 q -6.953,3.065 -6.953,14.999 a 30.304,30.304 0 0 0 0.3,4.413 q 0.66,4.474 2.772,7.273 3.072,4.071 9.103,4.071 5.164,0 10.593,-2.224 v 5.541 a 17.799,17.799 0 0 1 -4.355,1.541 q -2.012,0.446 -4.352,0.565 a 34.315,34.315 0 0 1 -1.735,0.042 q -8.972,0 -13.891,-5.522 -4.249,-4.77 -4.828,-12.957 a 37.836,37.836 0 0 1 -0.091,-2.668 34.526,34.526 0 0 1 0.535,-6.278 q 0.648,-3.502 2.083,-6.262 a 17.251,17.251 0 0 1 2.377,-3.48 16.202,16.202 0 0 1 8.872,-5.102 24.563,24.563 0 0 1 5.358,-0.552 28.238,28.238 0 0 1 5.955,0.64 q 2.945,0.634 4.637,1.489 a 9.351,9.351 0 0 1 0.038,0.019 z m -99.478,3.167 a 17.584,17.584 0 0 0 -3.406,0.307 q -3.82,0.755 -5.83,3.368 a 10.712,10.712 0 0 0 -1.551,2.954 q -1.276,3.578 -1.276,9.429 0,8.707 2.903,12.458 2.902,3.751 9.311,3.751 a 12.474,12.474 0 0 0 3.543,-0.474 8.999,8.999 0 0 0 5.051,-3.729 14.364,14.364 0 0 0 1.777,-3.845 q 1.05,-3.436 1.05,-8.237 a 36.969,36.969 0 0 0 -0.223,-4.212 q -0.572,-4.968 -2.604,-7.812 a 9.125,9.125 0 0 0 -5.809,-3.677 14.472,14.472 0 0 0 -2.936,-0.281 z m 52.773,20.167 v -3.732 l -6.257,0.264 a 45.946,45.946 0 0 0 -3.671,0.266 q -3.62,0.421 -5.89,1.423 a 9.61,9.61 0 0 0 -1.201,0.629 6.677,6.677 0 0 0 -3.183,4.844 9.883,9.883 0 0 0 -0.116,1.545 8.943,8.943 0 0 0 0.222,2.052 q 0.371,1.577 1.367,2.661 a 5.573,5.573 0 0 0 0.466,0.452 6.812,6.812 0 0 0 2.552,1.355 q 1.405,0.416 3.196,0.416 a 17.228,17.228 0 0 0 3.721,-0.378 q 2.592,-0.574 4.505,-2.014 a 10.447,10.447 0 0 0 0.953,-0.812 q 3.318,-3.186 3.336,-8.908 a 19.921,19.921 0 0 0 0,-0.063 z"
         inkscape:connector-curvature="0" />
      <path
         style="vector-effect:non-scaling-stroke;stroke:#ff0000;stroke-width:0.1"
         id="right_outsideCutPath"
         d="m 536,128 v 48.25 h -3 v 46.875 h 2.75 v 1.375 1.375 H 533 v 46.875 h 3 v 96.5 h -3 v 46.875 h 2.75 v 1.375 1.375 H 533 v 46.875 h 3 V 514 h 53.25 v -3 h 54.875 v -2.75 h -1.25 V 506 h 1.25 v -2.25 h 2.75 V 506 h 1.25 v 2.25 h -1.25 V 511 h 54.875 v 3 h 112.5 v -3 h 54.875 v -2.75 h -1.25 V 506 h 1.25 v -2.25 h 2.75 V 506 h 1.25 v 2.25 h -1.25 V 511 h 54.875 v 3 H 980 v -48.25 h 3 v -46.875 h -2.75 V 417.5 416.125 H 983 V 369.25 h -3 v -96.5 h 3 v -46.875 h -2.75 V 224.5 223.125 H 983 V 176.25 h -3 V 128 h -53.25 v 3 h -54.875 v 2.75 h 1.25 V 136 h -1.25 v 2.25 h -2.75 V 136 h -1.25 v -2.25 h 1.25 V 131 H 814.25 v -3 h -112.5 v 3 h -54.875 v 2.75 h 1.25 V 136 h -1.25 v 2.25 h -2.75 V 136 h -1.25 v -2.25 h 1.25 V 131 H 589.25 v -3 z"
         inkscape:connector-curvature="0" />
      <path
         style="vector-effect:non-scaling-stroke;fill:#777777;stroke:#777777"
         id="right_labelLayer"
         d="m 806.005,341.054 h -6.257 v -26.726 q 0,-3.22 -0.935,-5.398 a 7.444,7.444 0 0 0 -1.365,-2.141 q -1.861,-2.014 -5.428,-2.398 a 16.589,16.589 0 0 0 -1.772,-0.09 q -6.521,0 -9.518,3.543 a 10.412,10.412 0 0 0 -1.767,3.131 q -1.065,2.868 -1.207,7.13 a 40.386,40.386 0 0 0 -0.023,1.349 v 21.6 h -6.257 V 282.4 h 6.257 v 17.754 a 56.29,56.29 0 0 1 -0.038,2.162 q -0.07,1.801 -0.263,3.153 h 0.377 q 1.847,-2.978 5.258,-4.693 a 16.064,16.064 0 0 1 5.273,-1.564 20.308,20.308 0 0 1 2.511,-0.151 q 7.577,0 11.366,3.6 3.788,3.6 3.788,11.441 z M 748.708,299.74 h 14.287 v 3.958 l -7.653,0.904 a 10.169,10.169 0 0 1 0.881,1.31 q 0.386,0.677 0.736,1.486 a 19.291,19.291 0 0 1 0.268,0.653 12.038,12.038 0 0 1 0.713,2.876 15.46,15.46 0 0 1 0.117,1.931 14.345,14.345 0 0 1 -0.659,4.447 11.602,11.602 0 0 1 -3.488,5.24 13.878,13.878 0 0 1 -5.46,2.876 q -2.644,0.743 -5.924,0.743 a 20.11,20.11 0 0 1 -2.327,-0.13 16.982,16.982 0 0 1 -1.141,-0.172 11.135,11.135 0 0 0 -1.795,1.162 q -0.928,0.749 -1.465,1.605 a 4.708,4.708 0 0 0 -0.736,2.549 3.243,3.243 0 0 0 0.165,1.061 q 0.3,0.871 1.146,1.395 a 3.473,3.473 0 0 0 0.084,0.05 4.389,4.389 0 0 0 0.973,0.401 q 1.403,0.41 3.814,0.41 h 7.313 a 25.614,25.614 0 0 1 3.89,0.276 q 2.034,0.313 3.678,0.981 a 11.308,11.308 0 0 1 2.742,1.57 9.154,9.154 0 0 1 3.402,5.831 13.749,13.749 0 0 1 0.198,2.386 13.549,13.549 0 0 1 -0.774,4.687 q -1.29,3.524 -4.73,5.774 a 18.765,18.765 0 0 1 -4.838,2.194 q -4.623,1.406 -11.22,1.406 -5.318,0 -9.038,-1.299 a 14.542,14.542 0 0 1 -3.458,-1.717 9.973,9.973 0 0 1 -3.215,-3.488 q -1.029,-1.91 -1.158,-4.329 a 13.213,13.213 0 0 1 -0.018,-0.702 q 0,-3.77 2.412,-6.521 a 10.926,10.926 0 0 1 3.753,-2.735 15.487,15.487 0 0 1 3.032,-0.997 6.494,6.494 0 0 1 -2.521,-2.039 7.711,7.711 0 0 1 -0.136,-0.185 5.801,5.801 0 0 1 -1.065,-3.136 7.185,7.185 0 0 1 -0.01,-0.37 7.156,7.156 0 0 1 0.361,-2.304 6.341,6.341 0 0 1 0.846,-1.654 8.957,8.957 0 0 1 1.182,-1.334 q 1.06,-0.993 2.625,-1.945 a 10.97,10.97 0 0 1 -4.765,-3.815 13.596,13.596 0 0 1 -0.456,-0.671 12.936,12.936 0 0 1 -1.985,-6.234 15.788,15.788 0 0 1 -0.032,-1.004 18.079,18.079 0 0 1 0.476,-4.275 11.895,11.895 0 0 1 3.596,-6.185 13.289,13.289 0 0 1 5.1,-2.813 q 2.819,-0.862 6.434,-0.862 a 23.985,23.985 0 0 1 3.173,0.2 18.268,18.268 0 0 1 2.67,0.554 z m 89.15,36.149 v 4.788 a 6.155,6.155 0 0 1 -0.73,0.289 q -0.907,0.301 -2.267,0.521 a 27.121,27.121 0 0 1 -1.769,0.23 q -0.833,0.079 -1.581,0.089 a 16.037,16.037 0 0 1 -0.212,0.002 16.343,16.343 0 0 1 -4.817,-0.649 q -5.294,-1.633 -6.679,-7.384 a 19.669,19.669 0 0 1 -0.492,-4.595 v -24.578 h -5.918 v -3.015 l 5.918,-2.601 2.639,-8.821 h 3.619 v 9.575 h 11.987 v 4.862 h -11.987 v 24.314 a 12.6,12.6 0 0 0 0.182,2.213 q 0.385,2.159 1.59,3.516 a 5.813,5.813 0 0 0 3.573,1.903 8.364,8.364 0 0 0 1.289,0.095 20.55,20.55 0 0 0 3.011,-0.215 18.938,18.938 0 0 0 0.193,-0.03 q 1.546,-0.245 2.451,-0.509 z m -135.93,-36.451 -0.867,5.805 a 27.578,27.578 0 0 0 -1.983,-0.366 q -1.376,-0.199 -2.54,-0.199 a 10.842,10.842 0 0 0 -8.01,3.46 14.833,14.833 0 0 0 -0.566,0.611 14.289,14.289 0 0 0 -3.447,8.023 18.993,18.993 0 0 0 -0.115,2.117 v 22.165 h -6.258 V 299.74 h 5.165 l 0.716,7.652 h 0.302 a 21.132,21.132 0 0 1 2.362,-3.376 16.142,16.142 0 0 1 3.179,-2.844 12.474,12.474 0 0 1 7.124,-2.186 28.727,28.727 0 0 1 2.572,0.109 20.967,20.967 0 0 1 2.366,0.343 z m 13.985,0.302 v 41.314 h -6.257 V 299.74 Z m 30.646,40.371 h -7.501 q -4.259,0 -6.634,2.036 a 6.594,6.594 0 0 0 -2.166,3.738 10.013,10.013 0 0 0 -0.209,2.105 q 0,3.128 2.458,4.847 a 7.342,7.342 0 0 0 0.369,0.241 q 2.827,1.734 8.105,1.734 a 42.066,42.066 0 0 0 4.108,-0.186 q 4.118,-0.405 6.703,-1.694 a 10.393,10.393 0 0 0 0.855,-0.475 9.128,9.128 0 0 0 2.118,-1.773 6.841,6.841 0 0 0 1.671,-4.617 8.466,8.466 0 0 0 -0.155,-1.681 q -0.412,-2.029 -1.919,-2.974 a 5.936,5.936 0 0 0 -1.407,-0.614 q -1.5,-0.461 -3.871,-0.613 a 39.815,39.815 0 0 0 -2.525,-0.074 z m -13.117,-27.14 a 12.214,12.214 0 0 0 0.251,2.56 q 0.341,1.588 1.143,2.779 a 6.695,6.695 0 0 0 1.056,1.22 8.088,8.088 0 0 0 3.255,1.767 q 1.586,0.457 3.568,0.457 a 13.632,13.632 0 0 0 3.569,-0.426 q 5.591,-1.52 5.591,-8.47 a 13.455,13.455 0 0 0 -0.46,-3.685 q -1.179,-4.132 -5.379,-5.229 a 13.609,13.609 0 0 0 -3.435,-0.397 13.13,13.13 0 0 0 -2.675,0.256 q -1.64,0.341 -2.889,1.139 a 7.202,7.202 0 0 0 -1.221,0.98 q -2.015,2.015 -2.32,5.686 a 16.461,16.461 0 0 0 -0.054,1.363 z m -24.314,-24.427 q 0,-2.149 1.055,-3.147 a 3.619,3.619 0 0 1 2.323,-0.989 4.777,4.777 0 0 1 0.316,-0.01 3.687,3.687 0 0 1 2.601,1.017 3.159,3.159 0 0 1 0.833,1.328 q 0.171,0.506 0.23,1.123 a 7.158,7.158 0 0 1 0.03,0.678 6.474,6.474 0 0 1 -0.101,1.187 q -0.123,0.659 -0.395,1.171 a 3.054,3.054 0 0 1 -0.597,0.79 3.65,3.65 0 0 1 -2.601,1.036 3.975,3.975 0 0 1 -1.368,-0.227 3.511,3.511 0 0 1 -1.271,-0.809 3.231,3.231 0 0 1 -0.787,-1.293 q -0.175,-0.516 -0.236,-1.148 a 7.388,7.388 0 0 1 -0.032,-0.707 z"
         inkscape:connector-curvature="0" />
      <g
         style="font-size:12px;fill:none;fill-rule:evenodd;stroke:#000000;stroke-width:0.25000001mm;stroke-linecap:round"
         font-size="9pt"
         id="svgGroup-3"
         transform="translate(554.625)">
        <path
           style="vector-effect:non-scaling-stroke;stroke:#ff0000;stroke-width:0.1"
           id="front_outsideCutPath-6"
           d="m -35.454183,947.97942 v 15.125 4.875 h 67.499995 v -3 h 66.12482 v -2.75 h -1.249994 v -2.25 h 1.249994 v -2.25 h 2.749988 v 2.25 h 1.25 v 2.25 h -1.25 v 2.75 h 66.125 v 3 h 135 v -3 h 66.125 v -2.75 h -1.25 v -2.25 h 1.25 v -2.25 h 2.75 v 2.25 h 1.25 v 2.25 h -1.25 v 2.75 h 66.125 v 3 h 67.5 v -15.125 -4.875 h -67.5 v 3 h -66.125 v 2.75 h 1.25 v 2.25 h -1.25 v 2.25 h -2.75 v -2.25 h -1.25 v -2.25 h 1.25 v -2.75 h -66.125 v -3 h -135 v 3 h -66.125 v 2.75 h 1.25 v 2.25 h -1.25 v 2.25 h -2.749988 v -2.25 h -1.249994 v -2.25 h 1.249994 v -2.75 h -66.12482 v -3 z"
           inkscape:connector-curvature="0" />
        <path
           style="vector-effect:non-scaling-stroke;fill:#777777;stroke:#777777"
           id="front_labelLayer-7"
           d="m 272.915,914.511 h -0.324 v -1.385 a 0.916,0.916 0 0 0 -0.011,-0.144 q -0.025,-0.156 -0.108,-0.247 a 0.366,0.366 0 0 0 -0.15,-0.095 q -0.094,-0.034 -0.223,-0.034 -0.336,0 -0.493,0.182 -0.156,0.182 -0.156,0.6 v 1.123 h -0.324 v -2.141 h 0.264 l 0.052,0.293 h 0.016 a 0.657,0.657 0 0 1 0.257,-0.234 0.79,0.79 0 0 1 0.022,-0.011 0.878,0.878 0 0 1 0.313,-0.083 1.062,1.062 0 0 1 0.088,-0.004 q 0.256,0 0.428,0.082 a 0.583,0.583 0 0 1 0.154,0.105 q 0.148,0.141 0.184,0.413 a 1.415,1.415 0 0 1 0.011,0.183 z m -6.228,-2.141 v 0.252 h -0.545 v 1.889 h -0.325 v -1.889 h -0.382 v -0.146 l 0.382,-0.118 v -0.119 a 1.314,1.314 0 0 1 0.031,-0.298 q 0.095,-0.406 0.483,-0.476 a 0.985,0.985 0 0 1 0.176,-0.015 1.044,1.044 0 0 1 0.148,0.011 q 0.071,0.011 0.151,0.03 a 2.099,2.099 0 0 1 0.099,0.028 l -0.084,0.259 a 1.574,1.574 0 0 0 -0.122,-0.034 q -0.062,-0.015 -0.116,-0.021 a 0.697,0.697 0 0 0 -0.082,-0.005 0.437,0.437 0 0 0 -0.105,0.012 0.281,0.281 0 0 0 -0.167,0.11 0.375,0.375 0 0 0 -0.049,0.1 q -0.033,0.097 -0.038,0.243 a 1.531,1.531 0 0 0 0,0.048 v 0.139 z m 7.878,1.873 v 0.248 q -0.047,0.023 -0.135,0.039 a 1.214,1.214 0 0 1 -0.02,0.003 q -0.096,0.016 -0.173,0.017 a 0.831,0.831 0 0 1 -0.011,0 0.847,0.847 0 0 1 -0.25,-0.034 q -0.372,-0.114 -0.372,-0.621 v -1.273 h -0.306 v -0.156 l 0.306,-0.135 0.137,-0.457 h 0.188 v 0.496 h 0.621 v 0.252 h -0.621 v 1.26 q 0,0.136 0.045,0.227 a 0.314,0.314 0 0 0 0.047,0.07 0.301,0.301 0 0 0 0.185,0.098 0.433,0.433 0 0 0 0.066,0.005 1.065,1.065 0 0 0 0.156,-0.011 0.981,0.981 0 0 0 0.01,-0.002 q 0.077,-0.012 0.123,-0.025 a 0.488,0.488 0 0 0 0.004,-10e-4 z m -6.255,-1.889 -0.045,0.301 q -0.133,-0.029 -0.235,-0.029 a 0.562,0.562 0 0 0 -0.415,0.179 0.768,0.768 0 0 0 -0.029,0.032 0.74,0.74 0 0 0 -0.179,0.416 0.984,0.984 0 0 0 -0.006,0.109 v 1.149 h -0.324 v -2.141 h 0.268 l 0.037,0.397 h 0.015 a 1.095,1.095 0 0 1 0.123,-0.175 0.836,0.836 0 0 1 0.165,-0.148 0.646,0.646 0 0 1 0.369,-0.113 1.488,1.488 0 0 1 0.133,0.006 1.086,1.086 0 0 1 0.123,0.017 z m 2.218,1.41 a 1.675,1.675 0 0 0 0.03,-0.326 q 0,-0.509 -0.265,-0.808 a 0.849,0.849 0 0 0 -0.394,-0.254 1.089,1.089 0 0 0 -0.32,-0.045 1.259,1.259 0 0 0 -0.226,0.019 0.858,0.858 0 0 0 -0.5,0.273 0.896,0.896 0 0 0 -0.11,0.153 q -0.152,0.264 -0.152,0.662 0,0.338 0.121,0.59 a 1.066,1.066 0 0 0 0.024,0.046 0.878,0.878 0 0 0 0.32,0.341 0.903,0.903 0 0 0 0.207,0.092 1.041,1.041 0 0 0 0.302,0.043 1.259,1.259 0 0 0 0.22,-0.019 0.864,0.864 0 0 0 0.509,-0.275 0.904,0.904 0 0 0 0.108,-0.148 q 0.087,-0.15 0.126,-0.344 z m -1.601,-0.326 a 1.642,1.642 0 0 0 0.015,0.235 q 0.018,0.119 0.054,0.215 a 0.68,0.68 0 0 0 0.095,0.175 0.531,0.531 0 0 0 0.346,0.204 0.805,0.805 0 0 0 0.136,0.011 0.753,0.753 0 0 0 0.199,-0.024 0.524,0.524 0 0 0 0.285,-0.19 q 0.165,-0.213 0.165,-0.626 a 1.618,1.618 0 0 0 -0.016,-0.23 q -0.017,-0.117 -0.052,-0.213 a 0.668,0.668 0 0 0 -0.097,-0.177 0.533,0.533 0 0 0 -0.332,-0.198 0.818,0.818 0 0 0 -0.156,-0.014 0.772,0.772 0 0 0 -0.192,0.023 0.516,0.516 0 0 0 -0.288,0.186 0.67,0.67 0 0 0 -0.104,0.202 q -0.031,0.092 -0.046,0.206 a 1.713,1.713 0 0 0 -0.012,0.215 z"
           inkscape:connector-curvature="0" />
        <path
           style="vector-effect:non-scaling-stroke;stroke:#ff0000;stroke-width:0.1"
           id="left_outsideCutPath-5"
           d="m 507.54562,947.97942 v 15.125 4.875 h 54.5 v -3 h 56.125 v -2.75 h -1.25 v -2.25 h 1.25 v -2.25 h 2.75 v 2.25 h 1.25 v 2.25 h -1.25 v 2.75 h 56.125 v 3 h 115 v -3 h 56.125 v -2.75 h -1.25 v -2.25 h 1.25 v -2.25 h 2.75 v 2.25 h 1.25 v 2.25 h -1.25 v 2.75 h 56.125 v 3 h 54.5 v -15.125 -4.875 h -54.5 v 3 h -56.125 v 2.75 h 1.25 v 2.25 h -1.25 v 2.25 h -2.75 v -2.25 h -1.25 v -2.25 h 1.25 v -2.75 h -56.125 v -3 h -115 v 3 h -56.125 v 2.75 h 1.25 v 2.25 h -1.25 v 2.25 h -2.75 v -2.25 h -1.25 v -2.25 h 1.25 v -2.75 h -56.125 v -3 z"
           inkscape:connector-curvature="0" />
        <path
           style="vector-effect:non-scaling-stroke;fill:#777777;stroke:#777777"
           id="left_labelLayer-3"
           d="m 771.423,912.37 v 0.252 h -0.545 v 1.889 h -0.324 v -1.889 h -0.383 v -0.146 l 0.383,-0.118 v -0.119 a 1.314,1.314 0 0 1 0.03,-0.298 q 0.095,-0.406 0.484,-0.476 a 0.985,0.985 0 0 1 0.175,-0.015 1.044,1.044 0 0 1 0.148,0.011 q 0.072,0.011 0.152,0.03 a 2.099,2.099 0 0 1 0.099,0.028 l -0.084,0.259 a 1.574,1.574 0 0 0 -0.123,-0.034 q -0.062,-0.015 -0.116,-0.021 a 0.697,0.697 0 0 0 -0.082,-0.005 0.437,0.437 0 0 0 -0.105,0.012 0.281,0.281 0 0 0 -0.166,0.11 0.375,0.375 0 0 0 -0.05,0.1 q -0.033,0.097 -0.037,0.243 a 1.531,1.531 0 0 0 -10e-4,0.048 v 0.139 z m -1.518,0.924 v 0.205 h -1.474 q 0.009,0.377 0.19,0.572 a 0.589,0.589 0 0 0 0.309,0.175 0.893,0.893 0 0 0 0.2,0.021 q 0.346,0 0.683,-0.145 v 0.289 a 1.946,1.946 0 0 1 -0.177,0.067 1.488,1.488 0 0 1 -0.148,0.04 q -0.153,0.032 -0.37,0.032 a 1.26,1.26 0 0 1 -0.315,-0.038 0.892,0.892 0 0 1 -0.434,-0.251 0.954,0.954 0 0 1 -0.228,-0.419 q -0.04,-0.149 -0.045,-0.326 a 1.852,1.852 0 0 1 -10e-4,-0.058 1.702,1.702 0 0 1 0.031,-0.338 q 0.058,-0.287 0.224,-0.484 a 0.831,0.831 0 0 1 0.605,-0.302 1.146,1.146 0 0 1 0.079,-0.003 q 0.403,0 0.637,0.265 0.234,0.264 0.234,0.698 z m 2.893,0.949 v 0.248 q -0.048,0.023 -0.136,0.039 a 1.214,1.214 0 0 1 -0.019,0.003 q -0.096,0.016 -0.174,0.017 a 0.831,0.831 0 0 1 -0.011,0 0.847,0.847 0 0 1 -0.25,-0.034 q -0.371,-0.114 -0.371,-0.621 v -1.273 h -0.307 v -0.156 l 0.307,-0.135 0.137,-0.457 h 0.187 v 0.496 h 0.621 v 0.252 h -0.621 v 1.26 q 0,0.136 0.045,0.227 a 0.314,0.314 0 0 0 0.047,0.07 0.301,0.301 0 0 0 0.185,0.098 0.433,0.433 0 0 0 0.067,0.005 1.065,1.065 0 0 0 0.156,-0.011 0.981,0.981 0 0 0 0.01,-0.002 q 0.076,-0.012 0.123,-0.025 a 0.488,0.488 0 0 0 0.004,-10e-4 z m -5.272,-2.771 v 3.039 h -0.324 v -3.039 z m 0.912,1.763 h 1.12 a 1.105,1.105 0 0 0 -0.014,-0.177 q -0.029,-0.18 -0.123,-0.292 a 0.444,0.444 0 0 0 -0.268,-0.153 0.666,0.666 0 0 0 -0.123,-0.011 0.639,0.639 0 0 0 -0.184,0.026 0.494,0.494 0 0 0 -0.227,0.142 0.64,0.64 0 0 0 -0.127,0.215 q -0.032,0.089 -0.047,0.195 a 1.225,1.225 0 0 0 -0.007,0.055 z"
           inkscape:connector-curvature="0" />
        <path
           style="vector-effect:non-scaling-stroke;stroke:#ff0000;stroke-width:0.1"
           id="top_outsideCutPath-5"
           d="m 1003,466 v 54.5 h -3 v 56.125 h 2.75 V 578 579.375 H 1000 V 635.5 h 3 v 115 h -3 v 56.125 h 2.75 V 808 809.375 H 1000 V 865.5 h 3 V 920 h 64.5 v 3 h 66.125 v -2.75 h 1.375 1.375 V 923 h 66.125 v -3 h 135 v 3 h 66.125 v -2.75 h 1.375 1.375 V 923 h 66.125 v -3 h 64.5 v -54.5 h 3 v -56.125 h -2.75 V 808 806.625 H 1540 V 750.5 h -3 v -115 h 3 v -56.125 h -2.75 V 578 576.625 H 1540 V 520.5 h -3 V 466 h -64.5 v -3 h -66.125 v 2.75 H 1405 1403.625 V 463 H 1337.5 v 3 h -135 v -3 h -66.125 v 2.75 H 1135 1133.625 V 463 H 1067.5 v 3 z"
           inkscape:connector-curvature="0" />
        <path
           style="vector-effect:non-scaling-stroke;fill:#777777;stroke:#777777"
           id="top_labelLayer-6"
           d="m 1303.062,705.938 h -0.539 a 70.571,70.571 0 0 1 0.463,5.215 59.135,59.135 0 0 1 0.076,2.96 v 20.26 h -7.457 v -71.336 h 6.065 l 1.033,6.738 h 0.359 a 20.073,20.073 0 0 1 2.903,-3.296 15.522,15.522 0 0 1 3.79,-2.543 18.675,18.675 0 0 1 5.354,-1.565 24.171,24.171 0 0 1 3.406,-0.232 q 9.793,0 15.116,6.693 5.324,6.693 5.324,18.777 a 43.722,43.722 0 0 1 -0.58,7.357 q -0.67,3.92 -2.116,7.065 a 20.96,20.96 0 0 1 -2.717,4.423 q -5.413,6.716 -15.027,6.716 a 22.619,22.619 0 0 1 -5.683,-0.693 19.68,19.68 0 0 1 -3.099,-1.081 q -3.976,-1.775 -6.671,-5.458 z m -72.863,0.179 v 5.705 q -1.096,0.528 -3.126,0.89 a 27.891,27.891 0 0 1 -0.445,0.076 32.321,32.321 0 0 1 -2.108,0.274 q -0.993,0.094 -1.885,0.106 a 19.117,19.117 0 0 1 -0.253,0.002 19.477,19.477 0 0 1 -5.739,-0.773 q -8.546,-2.637 -8.546,-14.276 v -29.289 h -7.052 v -3.594 l 7.052,-3.099 3.145,-10.512 h 4.312 v 11.41 h 14.285 v 5.795 h -14.285 v 28.975 a 15.016,15.016 0 0 0 0.217,2.637 q 0.46,2.573 1.895,4.191 a 6.927,6.927 0 0 0 4.258,2.267 9.967,9.967 0 0 0 1.537,0.114 24.49,24.49 0 0 0 3.587,-0.257 22.568,22.568 0 0 0 0.231,-0.035 q 1.758,-0.279 2.82,-0.578 a 11.199,11.199 0 0 0 0.1,-0.029 z m 52.334,-18.508 q 0,12.039 -6.065,18.8 a 19.881,19.881 0 0 1 -11.699,6.338 28.956,28.956 0 0 1 -5.056,0.423 23.947,23.947 0 0 1 -6.959,-0.98 20.764,20.764 0 0 1 -4.766,-2.12 20.188,20.188 0 0 1 -7.364,-7.831 24.51,24.51 0 0 1 -0.542,-1.063 27.586,27.586 0 0 1 -2.317,-7.524 37.305,37.305 0 0 1 -0.469,-6.043 q 0,-9.166 3.49,-15.246 a 20.602,20.602 0 0 1 2.53,-3.509 19.724,19.724 0 0 1 11.509,-6.269 28.962,28.962 0 0 1 5.202,-0.446 25.058,25.058 0 0 1 7.356,1.028 19.521,19.521 0 0 1 9.063,5.845 23.22,23.22 0 0 1 5.073,9.834 q 1.014,3.977 1.014,8.763 z m -37.51,0 q 0,9.434 3.773,14.375 a 12.222,12.222 0 0 0 7.96,4.688 18.52,18.52 0 0 0 3.136,0.254 17.321,17.321 0 0 0 4.57,-0.568 12.054,12.054 0 0 0 6.548,-4.351 16.008,16.008 0 0 0 2.493,-4.855 q 0.733,-2.244 1.054,-4.983 a 39.28,39.28 0 0 0 0.249,-4.56 37.207,37.207 0 0 0 -0.352,-5.302 q -0.804,-5.571 -3.444,-8.96 a 12.267,12.267 0 0 0 -7.626,-4.55 18.807,18.807 0 0 0 -3.582,-0.324 q -7.322,0 -11.05,4.806 a 15.418,15.418 0 0 0 -2.397,4.632 q -0.708,2.128 -1.039,4.733 a 39.405,39.405 0 0 0 -0.293,4.965 z m 58.039,-1.662 v 1.662 a 49.305,49.305 0 0 0 0.244,5.096 q 0.675,6.469 3.215,9.751 a 10.818,10.818 0 0 0 5.488,3.703 q 1.834,0.575 4.072,0.719 a 23.977,23.977 0 0 0 1.536,0.048 12.565,12.565 0 0 0 4.885,-0.918 q 3.018,-1.259 5.11,-4.248 2.853,-4.077 3.455,-10.586 a 39.728,39.728 0 0 0 0.161,-3.654 q 0,-6.044 -1.557,-10.24 a 15.809,15.809 0 0 0 -2.059,-3.888 11.6,11.6 0 0 0 -8.485,-4.833 16.044,16.044 0 0 0 -1.69,-0.086 21.487,21.487 0 0 0 -4.014,0.349 q -2.236,0.426 -3.952,1.371 a 9.854,9.854 0 0 0 -2.95,2.457 12.776,12.776 0 0 0 -1.998,3.641 q -1.403,3.814 -1.461,9.656 z"
           inkscape:connector-curvature="0" />
        <path
           style="vector-effect:non-scaling-stroke;stroke:#ff0000;stroke-width:0.1"
           id="back_outsideCutPath-2"
           d="m -35.454183,924.97942 v 15.125 4.875 h 67.499995 v -3 h 66.12482 v -2.75 h -1.249994 v -2.25 h 1.249994 v -2.25 h 2.749988 v 2.25 h 1.25 v 2.25 h -1.25 v 2.75 h 66.125 v 3 h 135 v -3 h 66.125 v -2.75 h -1.25 v -2.25 h 1.25 v -2.25 h 2.75 v 2.25 h 1.25 v 2.25 h -1.25 v 2.75 h 66.125 v 3 h 67.5 v -15.125 -4.875 h -67.5 v 3 h -66.125 v 2.75 h 1.25 v 2.25 h -1.25 v 2.25 h -2.75 v -2.25 h -1.25 v -2.25 h 1.25 v -2.75 h -66.125 v -3 h -135 v 3 h -66.125 v 2.75 h 1.25 v 2.25 h -1.25 v 2.25 h -2.749988 v -2.25 h -1.249994 v -2.25 h 1.249994 v -2.75 h -66.12482 v -3 z"
           inkscape:connector-curvature="0" />
        <path
           style="vector-effect:non-scaling-stroke;fill:#777777;stroke:#777777"
           id="back_labelLayer-9"
           d="m 272.738,890.404 h 0.016 a 1.919,1.919 0 0 1 0.047,-0.064 q 0.08,-0.103 0.209,-0.248 l 0.691,-0.733 h 0.385 l -0.867,0.912 0.927,1.229 h -0.392 l -0.756,-1.012 -0.244,0.211 v 0.801 h -0.32 v -3.039 h 0.32 v 1.611 q 0,0.108 -0.016,0.332 z m -6.56,0.821 h -0.024 l -0.068,0.275 h -0.232 v -3.039 h 0.324 v 0.738 a 6.76,6.76 0 0 1 -0.004,0.229 q -0.004,0.115 -0.012,0.217 h 0.016 a 0.737,0.737 0 0 1 0.538,-0.313 1.107,1.107 0 0 1 0.134,-0.008 q 0.421,0 0.655,0.288 a 0.955,0.955 0 0 1 0.167,0.323 q 0.042,0.133 0.057,0.292 a 2.081,2.081 0 0 1 0.009,0.201 q 0,0.527 -0.235,0.819 a 0.768,0.768 0 0 1 -0.546,0.287 1.1,1.1 0 0 1 -0.107,0.005 0.983,0.983 0 0 1 -0.248,-0.03 0.856,0.856 0 0 1 -0.134,-0.047 0.718,0.718 0 0 1 -0.29,-0.237 z m 3.683,0.275 h -0.24 l -0.064,-0.305 h -0.016 a 1.344,1.344 0 0 1 -0.109,0.122 q -0.058,0.058 -0.117,0.098 a 0.597,0.597 0 0 1 -0.093,0.053 0.748,0.748 0 0 1 -0.155,0.048 q -0.075,0.016 -0.161,0.021 a 1.459,1.459 0 0 1 -0.082,0.002 0.995,0.995 0 0 1 -0.202,-0.019 q -0.124,-0.026 -0.219,-0.086 a 0.558,0.558 0 0 1 -0.078,-0.059 0.533,0.533 0 0 1 -0.161,-0.281 0.816,0.816 0 0 1 -0.019,-0.186 q 0,-0.648 1.037,-0.68 l 0.363,-0.011 v -0.133 a 0.931,0.931 0 0 0 -0.009,-0.135 q -0.01,-0.069 -0.032,-0.124 a 0.362,0.362 0 0 0 -0.067,-0.113 q -0.087,-0.096 -0.256,-0.115 a 0.801,0.801 0 0 0 -0.091,-0.005 1.056,1.056 0 0 0 -0.243,0.03 q -0.112,0.026 -0.233,0.076 a 2.171,2.171 0 0 0 -0.13,0.058 l -0.099,-0.248 a 1.495,1.495 0 0 1 0.288,-0.119 1.702,1.702 0 0 1 0.058,-0.016 1.501,1.501 0 0 1 0.378,-0.049 1.369,1.369 0 0 1 0.209,0.015 q 0.107,0.017 0.193,0.052 a 0.552,0.552 0 0 1 0.166,0.103 0.513,0.513 0 0 1 0.132,0.204 q 0.052,0.142 0.052,0.341 z m 2.096,-2.068 -0.1,0.275 a 1.442,1.442 0 0 0 -0.156,-0.052 1.723,1.723 0 0 0 -0.078,-0.019 1.339,1.339 0 0 0 -0.102,-0.019 q -0.05,-0.007 -0.094,-0.009 a 0.719,0.719 0 0 0 -0.029,-10e-4 q -0.579,0 -0.644,0.657 a 1.791,1.791 0 0 0 -0.008,0.175 q 0,0.259 0.069,0.439 a 0.673,0.673 0 0 0 0.09,0.167 0.515,0.515 0 0 0 0.334,0.199 0.784,0.784 0 0 0 0.138,0.012 1.357,1.357 0 0 0 0.374,-0.055 1.676,1.676 0 0 0 0.175,-0.06 v 0.287 q -0.185,0.095 -0.451,0.109 a 1.778,1.778 0 0 1 -0.09,0.002 q -0.465,0 -0.72,-0.286 -0.22,-0.247 -0.25,-0.671 a 1.96,1.96 0 0 1 -0.005,-0.139 1.789,1.789 0 0 1 0.028,-0.325 q 0.033,-0.181 0.108,-0.324 a 0.894,0.894 0 0 1 0.123,-0.181 0.84,0.84 0 0 1 0.46,-0.264 1.273,1.273 0 0 1 0.277,-0.029 1.463,1.463 0 0 1 0.309,0.033 1.618,1.618 0 0 1 0.09,0.022 q 0.092,0.026 0.152,0.057 z m -5.508,0.244 a 0.431,0.431 0 0 0 -0.125,0.11 q -0.128,0.167 -0.144,0.536 a 2.498,2.498 0 0 0 -0.002,0.106 2.144,2.144 0 0 0 0.01,0.221 q 0.024,0.224 0.098,0.36 a 0.489,0.489 0 0 0 0.042,0.064 0.47,0.47 0 0 0 0.239,0.161 q 0.106,0.034 0.244,0.034 a 0.646,0.646 0 0 0 0.183,-0.025 0.466,0.466 0 0 0 0.262,-0.193 q 0.105,-0.156 0.134,-0.409 a 1.858,1.858 0 0 0 0.012,-0.217 q 0,-0.396 -0.131,-0.601 a 0.538,0.538 0 0 0 -0.015,-0.022 0.473,0.473 0 0 0 -0.301,-0.191 0.75,0.75 0 0 0 -0.152,-0.014 q -0.216,0 -0.354,0.08 z m 3.088,0.965 v -0.194 l -0.324,0.014 q -0.387,0.014 -0.558,0.12 a 0.346,0.346 0 0 0 -0.165,0.251 0.512,0.512 0 0 0 -0.006,0.08 q 0,0.176 0.107,0.268 0.092,0.079 0.247,0.09 a 0.729,0.729 0 0 0 0.051,10e-4 0.893,0.893 0 0 0 0.192,-0.019 q 0.135,-0.03 0.234,-0.105 a 0.541,0.541 0 0 0 0.049,-0.042 q 0.172,-0.165 0.173,-0.461 a 1.033,1.033 0 0 0 0,-0.003 z"
           inkscape:connector-curvature="0" />
        <path
           style="vector-effect:non-scaling-stroke;stroke:#ff0000;stroke-width:0.1"
           id="right_outsideCutPath-1"
           d="m 507.54562,924.97942 v 15.125 4.875 h 54.5 v -3 h 56.125 v -2.75 h -1.25 v -2.25 h 1.25 v -2.25 h 2.75 v 2.25 h 1.25 v 2.25 h -1.25 v 2.75 h 56.125 v 3 h 115 v -3 h 56.125 v -2.75 h -1.25 v -2.25 h 1.25 v -2.25 h 2.75 v 2.25 h 1.25 v 2.25 h -1.25 v 2.75 h 56.125 v 3 h 54.5 v -15.125 -4.875 h -54.5 v 3 h -56.125 v 2.75 h 1.25 v 2.25 h -1.25 v 2.25 h -2.75 v -2.25 h -1.25 v -2.25 h 1.25 v -2.75 h -56.125 v -3 h -115 v 3 h -56.125 v 2.75 h 1.25 v 2.25 h -1.25 v 2.25 h -2.75 v -2.25 h -1.25 v -2.25 h 1.25 v -2.75 h -56.125 v -3 z"
           inkscape:connector-curvature="0" />
        <path
           style="vector-effect:non-scaling-stroke;fill:#777777;stroke:#777777"
           id="right_labelLayer-2"
           d="m 772.487,891.039 h -0.324 v -1.385 a 0.916,0.916 0 0 0 -0.01,-0.143 q -0.025,-0.157 -0.109,-0.247 a 0.366,0.366 0 0 0 -0.15,-0.096 q -0.094,-0.033 -0.223,-0.033 -0.221,0 -0.364,0.078 a 0.454,0.454 0 0 0 -0.129,0.105 q -0.156,0.184 -0.156,0.602 v 1.119 h -0.324 V 888 h 0.324 v 0.92 a 2.917,2.917 0 0 1 -0.002,0.112 q -0.002,0.052 -0.006,0.098 a 1.268,1.268 0 0 1 -0.007,0.065 h 0.019 a 0.648,0.648 0 0 1 0.227,-0.218 0.791,0.791 0 0 1 0.046,-0.025 0.832,0.832 0 0 1 0.273,-0.081 1.052,1.052 0 0 1 0.13,-0.008 q 0.258,0 0.432,0.081 a 0.584,0.584 0 0 1 0.157,0.106 q 0.196,0.186 0.196,0.593 z m -2.968,-2.141 h 0.74 v 0.206 l -0.397,0.046 q 0.046,0.058 0.084,0.145 a 1,1 0 0 1 0.014,0.034 0.624,0.624 0 0 1 0.037,0.149 0.801,0.801 0 0 1 0.006,0.1 q 0,0.315 -0.215,0.502 -0.193,0.169 -0.517,0.186 a 1.408,1.408 0 0 1 -0.073,0.002 1.042,1.042 0 0 1 -0.12,-0.007 0.88,0.88 0 0 1 -0.059,-0.009 q -0.207,0.109 -0.207,0.275 0,0.088 0.072,0.13 0.058,0.034 0.183,0.041 a 1.233,1.233 0 0 0 0.065,10e-4 h 0.379 a 1.327,1.327 0 0 1 0.201,0.015 q 0.205,0.031 0.333,0.132 a 0.474,0.474 0 0 1 0.176,0.302 0.712,0.712 0 0 1 0.01,0.123 0.702,0.702 0 0 1 -0.04,0.243 q -0.064,0.177 -0.234,0.292 a 0.771,0.771 0 0 1 -0.011,0.007 0.972,0.972 0 0 1 -0.25,0.114 q -0.124,0.038 -0.275,0.056 a 2.57,2.57 0 0 1 -0.307,0.017 1.817,1.817 0 0 1 -0.243,-0.015 q -0.248,-0.034 -0.404,-0.141 a 0.517,0.517 0 0 1 -0.167,-0.181 q -0.053,-0.099 -0.06,-0.224 a 0.685,0.685 0 0 1 -10e-4,-0.037 0.496,0.496 0 0 1 0.125,-0.338 0.566,0.566 0 0 1 0.195,-0.141 0.802,0.802 0 0 1 0.157,-0.052 q -0.082,-0.037 -0.138,-0.115 a 0.301,0.301 0 0 1 -0.055,-0.163 0.372,0.372 0 0 1 -10e-4,-0.019 q 0,-0.117 0.063,-0.205 0.047,-0.066 0.136,-0.129 a 1.018,1.018 0 0 1 0.061,-0.041 0.568,0.568 0 0 1 -0.247,-0.197 0.704,0.704 0 0 1 -0.023,-0.035 0.67,0.67 0 0 1 -0.103,-0.323 0.818,0.818 0 0 1 -0.002,-0.052 0.937,0.937 0 0 1 0.025,-0.222 0.616,0.616 0 0 1 0.186,-0.32 0.689,0.689 0 0 1 0.264,-0.146 q 0.147,-0.045 0.334,-0.045 a 1.243,1.243 0 0 1 0.164,0.011 0.947,0.947 0 0 1 0.139,0.028 z m 4.619,1.873 v 0.249 q -0.048,0.022 -0.136,0.038 a 1.214,1.214 0 0 1 -0.02,0.004 q -0.095,0.015 -0.173,0.016 a 0.831,0.831 0 0 1 -0.011,0 0.847,0.847 0 0 1 -0.25,-0.033 q -0.371,-0.115 -0.371,-0.621 v -1.274 h -0.307 v -0.156 l 0.307,-0.135 0.136,-0.457 h 0.188 v 0.496 h 0.621 v 0.252 h -0.621 v 1.26 q 0,0.136 0.045,0.228 a 0.314,0.314 0 0 0 0.047,0.069 0.301,0.301 0 0 0 0.185,0.099 0.433,0.433 0 0 0 0.067,0.005 1.065,1.065 0 0 0 0.156,-0.012 0.981,0.981 0 0 0 0.01,-10e-4 q 0.076,-0.012 0.122,-0.025 a 0.488,0.488 0 0 0 0.005,-0.002 z m -7.043,-1.888 -0.045,0.301 q -0.133,-0.03 -0.235,-0.03 a 0.562,0.562 0 0 0 -0.415,0.18 0.768,0.768 0 0 0 -0.029,0.031 0.74,0.74 0 0 0 -0.179,0.416 0.984,0.984 0 0 0 -0.005,0.11 v 1.148 h -0.325 v -2.141 h 0.268 l 0.037,0.397 h 0.016 a 1.095,1.095 0 0 1 0.122,-0.175 0.836,0.836 0 0 1 0.165,-0.147 0.646,0.646 0 0 1 0.369,-0.114 1.488,1.488 0 0 1 0.133,0.006 1.086,1.086 0 0 1 0.123,0.018 z m 0.724,0.015 v 2.141 h -0.324 v -2.141 z m 1.588,2.092 h -0.388 q -0.162,0 -0.271,0.057 a 0.38,0.38 0 0 0 -0.073,0.049 0.342,0.342 0 0 0 -0.112,0.193 0.519,0.519 0 0 0 -0.011,0.109 0.326,0.326 0 0 0 0.021,0.121 q 0.031,0.078 0.106,0.131 a 0.38,0.38 0 0 0 0.019,0.012 0.519,0.519 0 0 0 0.128,0.055 q 0.121,0.035 0.292,0.035 0.365,0 0.56,-0.097 a 0.539,0.539 0 0 0 0.045,-0.025 0.473,0.473 0 0 0 0.109,-0.092 0.354,0.354 0 0 0 0.087,-0.239 0.439,0.439 0 0 0 -0.008,-0.087 q -0.01,-0.05 -0.033,-0.088 a 0.204,0.204 0 0 0 -0.066,-0.066 0.308,0.308 0 0 0 -0.073,-0.032 q -0.116,-0.036 -0.332,-0.036 z m -0.679,-1.406 a 0.633,0.633 0 0 0 0.013,0.133 q 0.027,0.128 0.113,0.207 a 0.419,0.419 0 0 0 0.169,0.091 q 0.082,0.024 0.185,0.024 0.375,0 0.454,-0.287 a 0.657,0.657 0 0 0 0.021,-0.174 0.697,0.697 0 0 0 -0.024,-0.191 q -0.083,-0.291 -0.457,-0.291 -0.175,0 -0.288,0.072 a 0.373,0.373 0 0 0 -0.063,0.051 0.389,0.389 0 0 0 -0.095,0.158 q -0.028,0.09 -0.028,0.207 z m -1.256,-1.325 a 0.359,0.359 0 0 0 -0.004,0.059 q 0,0.11 0.054,0.163 a 0.182,0.182 0 0 0 0.066,0.042 0.206,0.206 0 0 0 0.071,0.012 q 0.078,0 0.135,-0.054 a 0.158,0.158 0 0 0 0.031,-0.04 q 0.014,-0.027 0.02,-0.061 a 0.335,0.335 0 0 0 0.006,-0.062 0.371,0.371 0 0 0 -0.002,-0.035 q -0.003,-0.032 -0.012,-0.058 a 0.164,0.164 0 0 0 -0.043,-0.069 q -0.057,-0.052 -0.135,-0.052 a 0.247,0.247 0 0 0 -0.016,0 0.187,0.187 0 0 0 -0.121,0.051 q -0.038,0.037 -0.05,0.104 z"
           inkscape:connector-curvature="0" />
        <path
           style="vector-effect:non-scaling-stroke;stroke:#ff0000;stroke-width:0.1"
           id="bottom_outsideCutPath"
           d="m 1003,3 v 54.5 h -3 v 56.125 h 2.75 V 115 116.375 H 1000 V 172.5 h 3 v 115 h -3 v 56.125 h 2.75 V 345 346.375 H 1000 V 402.5 h 3 V 457 h 64.5 v 3 h 66.125 v -2.75 h 1.375 1.375 V 460 h 66.125 v -3 h 135 v 3 h 66.125 v -2.75 h 1.375 1.375 V 460 h 66.125 v -3 h 64.5 v -54.5 h 3 v -56.125 h -2.75 V 345 343.625 H 1540 V 287.5 h -3 v -115 h 3 v -56.125 h -2.75 V 115 113.625 H 1540 V 57.5 h -3 V 3 h -64.5 V 0 h -66.125 V 2.75 H 1405 1403.625 V 0 H 1337.5 v 3 h -135 V 0 h -66.125 V 2.75 H 1135 1133.625 V 0 H 1067.5 v 3 z"
           inkscape:connector-curvature="0" />
        <path
           style="vector-effect:non-scaling-stroke;fill:#777777;stroke:#777777"
           id="bottom_labelLayer"
           d="m 1421.342,264.499 h -7.457 V 232.47 a 21.999,21.999 0 0 0 -0.222,-3.235 q -0.525,-3.524 -2.294,-5.593 -2.201,-2.573 -6.532,-2.896 a 17.31,17.31 0 0 0 -1.284,-0.046 19.188,19.188 0 0 0 -3.906,0.371 q -2.321,0.483 -4.07,1.595 a 9.875,9.875 0 0 0 -2.312,2.032 q -3.308,3.98 -3.324,12.232 a 41.35,41.35 0 0 0 0,0.077 v 27.492 h -7.457 V 232.47 a 21.999,21.999 0 0 0 -0.222,-3.235 q -0.525,-3.524 -2.293,-5.593 a 7.822,7.822 0 0 0 -3.598,-2.338 q -1.295,-0.425 -2.877,-0.551 a 17.462,17.462 0 0 0 -1.387,-0.053 q -4.89,0 -7.954,2.046 a 9.774,9.774 0 0 0 -2.31,2.154 12.505,12.505 0 0 0 -1.855,3.522 q -1.202,3.401 -1.374,8.5 a 51.918,51.918 0 0 0 -0.028,1.747 v 25.83 h -7.457 v -49.235 h 6.064 l 1.213,6.739 h 0.359 q 2.112,-3.594 5.953,-5.615 a 17.704,17.704 0 0 1 6.992,-1.962 21.383,21.383 0 0 1 1.61,-0.06 24.414,24.414 0 0 1 5.495,0.572 q 6.979,1.615 9.599,7.783 h 0.359 a 15.57,15.57 0 0 1 5.865,-5.822 18.706,18.706 0 0 1 0.514,-0.287 18.874,18.874 0 0 1 6.924,-2.106 23.534,23.534 0 0 1 2.6,-0.14 25.921,25.921 0 0 1 4.701,0.398 q 2.614,0.483 4.654,1.551 a 12.289,12.289 0 0 1 3.155,2.341 12.841,12.841 0 0 1 2.757,4.51 q 1.399,3.741 1.399,9.214 z m -295.227,-6.334 h -0.539 l -1.572,6.334 h -5.346 V 194.6 h 7.457 v 16.981 a 155.473,155.473 0 0 1 -0.084,5.253 q -0.09,2.65 -0.275,4.989 h 0.359 q 5.211,-7.367 15.453,-7.367 a 22.791,22.791 0 0 1 6.414,0.856 17.061,17.061 0 0 1 8.657,5.77 21.974,21.974 0 0 1 3.854,7.421 q 1.515,4.89 1.515,11.334 a 43.722,43.722 0 0 1 -0.58,7.356 q -0.67,3.921 -2.116,7.065 a 20.96,20.96 0 0 1 -2.717,4.423 q -5.414,6.716 -15.027,6.716 a 22.619,22.619 0 0 1 -5.684,-0.693 19.68,19.68 0 0 1 -3.098,-1.081 q -3.976,-1.775 -6.671,-5.458 z m 127.129,0.18 v 5.705 q -1.096,0.527 -3.126,0.89 a 27.891,27.891 0 0 1 -0.445,0.075 32.321,32.321 0 0 1 -2.108,0.275 q -0.993,0.094 -1.885,0.106 a 19.117,19.117 0 0 1 -0.252,10e-4 19.477,19.477 0 0 1 -5.74,-0.772 q -8.546,-2.637 -8.546,-14.277 v -29.289 h -7.052 v -3.593 l 7.052,-3.1 3.145,-10.512 h 4.312 v 11.41 h 14.286 v 5.795 h -14.286 v 28.975 a 15.016,15.016 0 0 0 0.217,2.637 q 0.46,2.573 1.895,4.191 a 6.927,6.927 0 0 0 4.258,2.267 9.967,9.967 0 0 0 1.537,0.114 24.49,24.49 0 0 0 3.587,-0.257 22.568,22.568 0 0 0 0.231,-0.035 q 1.758,-0.279 2.82,-0.578 a 11.199,11.199 0 0 0 0.1,-0.028 z m 32.478,0 v 5.705 q -1.095,0.527 -3.126,0.89 a 27.891,27.891 0 0 1 -0.445,0.075 32.321,32.321 0 0 1 -2.107,0.275 q -0.994,0.094 -1.885,0.106 a 19.117,19.117 0 0 1 -0.253,10e-4 19.477,19.477 0 0 1 -5.74,-0.772 q -8.545,-2.637 -8.545,-14.277 v -29.289 h -7.053 v -3.593 l 7.053,-3.1 3.144,-10.512 h 4.313 v 11.41 h 14.285 v 5.795 h -14.285 v 28.975 a 15.016,15.016 0 0 0 0.217,2.637 q 0.459,2.573 1.894,4.191 a 6.927,6.927 0 0 0 4.259,2.267 9.967,9.967 0 0 0 1.536,0.114 24.49,24.49 0 0 0 3.588,-0.257 22.568,22.568 0 0 0 0.231,-0.035 q 1.757,-0.279 2.819,-0.578 a 11.199,11.199 0 0 0 0.1,-0.028 z m -68.191,-18.508 q 0,12.039 -6.064,18.8 a 19.881,19.881 0 0 1 -11.7,6.338 28.956,28.956 0 0 1 -5.056,0.422 23.947,23.947 0 0 1 -6.959,-0.98 20.764,20.764 0 0 1 -4.766,-2.119 20.188,20.188 0 0 1 -7.363,-7.832 24.51,24.51 0 0 1 -0.543,-1.063 27.586,27.586 0 0 1 -2.317,-7.524 37.305,37.305 0 0 1 -0.468,-6.042 q 0,-9.166 3.489,-15.247 a 20.602,20.602 0 0 1 2.53,-3.508 19.724,19.724 0 0 1 11.509,-6.27 28.962,28.962 0 0 1 5.202,-0.446 25.058,25.058 0 0 1 7.356,1.028 19.521,19.521 0 0 1 9.063,5.845 23.22,23.22 0 0 1 5.073,9.834 q 1.014,3.978 1.014,8.764 z m 120.525,0 q 0,12.039 -6.064,18.8 a 19.881,19.881 0 0 1 -11.699,6.338 28.956,28.956 0 0 1 -5.057,0.422 23.947,23.947 0 0 1 -6.958,-0.98 20.764,20.764 0 0 1 -4.766,-2.119 20.188,20.188 0 0 1 -7.364,-7.832 24.51,24.51 0 0 1 -0.543,-1.063 27.586,27.586 0 0 1 -2.316,-7.524 37.305,37.305 0 0 1 -0.469,-6.042 q 0,-9.166 3.489,-15.247 a 20.602,20.602 0 0 1 2.531,-3.508 19.724,19.724 0 0 1 11.508,-6.27 28.962,28.962 0 0 1 5.203,-0.446 25.058,25.058 0 0 1 7.356,1.028 19.521,19.521 0 0 1 9.063,5.845 23.22,23.22 0 0 1 5.072,9.834 q 1.014,3.978 1.014,8.764 z m -158.035,0 q 0,9.433 3.774,14.375 a 12.222,12.222 0 0 0 7.96,4.687 18.52,18.52 0 0 0 3.135,0.254 17.321,17.321 0 0 0 4.57,-0.568 12.054,12.054 0 0 0 6.549,-4.351 16.008,16.008 0 0 0 2.492,-4.855 q 0.733,-2.244 1.054,-4.982 a 39.28,39.28 0 0 0 0.249,-4.56 37.207,37.207 0 0 0 -0.352,-5.302 q -0.804,-5.572 -3.443,-8.961 a 12.267,12.267 0 0 0 -7.627,-4.55 18.807,18.807 0 0 0 -3.581,-0.324 q -7.323,0 -11.051,4.807 a 15.418,15.418 0 0 0 -2.397,4.631 q -0.707,2.129 -1.039,4.733 a 39.405,39.405 0 0 0 -0.293,4.966 z m 120.526,0 q 0,9.433 3.773,14.375 a 12.222,12.222 0 0 0 7.96,4.687 18.52,18.52 0 0 0 3.136,0.254 17.321,17.321 0 0 0 4.569,-0.568 12.054,12.054 0 0 0 6.549,-4.351 16.008,16.008 0 0 0 2.493,-4.855 q 0.733,-2.244 1.053,-4.982 a 39.28,39.28 0 0 0 0.25,-4.56 37.207,37.207 0 0 0 -0.353,-5.302 q -0.804,-5.572 -3.443,-8.961 a 12.267,12.267 0 0 0 -7.627,-4.55 18.807,18.807 0 0 0 -3.581,-0.324 q -7.322,0 -11.051,4.807 a 15.418,15.418 0 0 0 -2.397,4.631 q -0.707,2.129 -1.039,4.733 a 39.405,39.405 0 0 0 -0.292,4.966 z M 1140.49,220.7 a 20.955,20.955 0 0 0 -4.058,0.366 q -2.312,0.457 -4.067,1.485 a 9.917,9.917 0 0 0 -2.881,2.529 q -2.96,3.848 -3.319,12.326 a 57.453,57.453 0 0 0 -0.05,2.431 49.305,49.305 0 0 0 0.244,5.096 q 0.675,6.468 3.215,9.75 a 10.818,10.818 0 0 0 5.488,3.704 q 1.834,0.575 4.071,0.718 a 23.977,23.977 0 0 0 1.537,0.048 14.866,14.866 0 0 0 4.222,-0.565 10.724,10.724 0 0 0 6.02,-4.444 q 3.369,-5.008 3.369,-14.397 0,-9.613 -3.369,-14.33 a 10.875,10.875 0 0 0 -6.923,-4.382 17.247,17.247 0 0 0 -3.499,-0.335 z"
           inkscape:connector-curvature="0" />
      </g>
    </g>
  </g>
</svg>
